<svg xmlns="http://www.w3.org/2000/svg" width="45.278" height="45.278" viewBox="0 0 114.278 114.278">
  <path id="_5282551_tweet_twitter_twitter_logo_icon" data-name="5282551_tweet_twitter_twitter logo_icon" d="M100.316,0a13.969,13.969,0,0,1,13.962,13.962v86.354a13.969,13.969,0,0,1-13.962,13.962H13.962A13.969,13.969,0,0,1,0,100.316V13.962A13.969,13.969,0,0,1,13.962,0ZM43.64,94.758c30.342,0,46.932-25.142,46.932-46.932,0-.718,0-1.437-.034-2.121a33.793,33.793,0,0,0,8.244-8.552,33.477,33.477,0,0,1-9.475,2.6,16.485,16.485,0,0,0,7.252-9.133,33.4,33.4,0,0,1-10.467,4A16.5,16.5,0,0,0,57.562,45.911a15.118,15.118,0,0,0,.445,3.763,46.792,46.792,0,0,1-34-17.24,16.487,16.487,0,0,0,5.131,22,16.2,16.2,0,0,1-7.457-2.053v.205a16.512,16.512,0,0,0,13.238,16.18,16.441,16.441,0,0,1-4.344.582,15.74,15.74,0,0,1-3.113-.308A16.469,16.469,0,0,0,42.853,80.494a33.155,33.155,0,0,1-20.49,7.047,29.968,29.968,0,0,1-3.934-.239,45.954,45.954,0,0,0,25.21,7.457Z" transform="translate(0)" fill="#0B3954" fill-rule="evenodd"/>
</svg>
