<svg xmlns="http://www.w3.org/2000/svg" width="45.278" height="45.278" viewBox="0 0 114.278 114.278">
                    <path id="_5282541_fb_social_media_facebook_facebook_logo_social_network_icon" data-name="5282541_fb_social media_facebook_facebook logo_social network_icon" d="M100.316,0a13.969,13.969,0,0,1,13.962,13.962v86.354a13.969,13.969,0,0,1-13.962,13.962H76.553V71.22H91.418l2.828-18.441H76.553V40.811c0-5.045,2.471-9.963,10.4-9.963h8.045v-15.7A98.116,98.116,0,0,0,80.713,13.9c-14.572,0-24.1,8.832-24.1,24.821V52.779h-16.2V71.22h16.2v43.059H13.962A13.969,13.969,0,0,1,0,100.316V13.962A13.969,13.969,0,0,1,13.962,0Z" transform="translate(0 0)" fill="#0B3954" fill-rule="evenodd"/>
                  </svg>