<svg xmlns="http://www.w3.org/2000/svg" width="45.278" height="45.278" viewBox="0 0 114.278 114.278">
  <path id="_5282548_play_player_video_youtube_youtuble_logo_icon" data-name="5282548_play_player_video_youtube_youtuble logo_icon" d="M100.316,0a13.969,13.969,0,0,1,13.962,13.962v86.354a13.969,13.969,0,0,1-13.962,13.962H13.962A13.969,13.969,0,0,1,0,100.316V13.962A13.969,13.969,0,0,1,13.962,0Zm-4.68,39.2a10.062,10.062,0,0,0-7.1-7.1c-6.267-1.679-31.394-1.679-31.394-1.679s-25.127,0-31.394,1.679a10.063,10.063,0,0,0-7.1,7.1c-1.679,6.266-1.679,19.341-1.679,19.341s0,13.074,1.679,19.34a10.064,10.064,0,0,0,7.1,7.1c6.267,1.679,31.394,1.679,31.394,1.679s25.127,0,31.394-1.679a10.062,10.062,0,0,0,7.1-7.1c1.679-6.266,1.679-19.34,1.679-19.34S97.315,45.467,95.636,39.2ZM49.1,70.594V46.488L69.979,58.541Z" transform="translate(0)" fill="#0B3954" fill-rule="evenodd"/>
</svg>
