<svg xmlns="http://www.w3.org/2000/svg" width="45.278" height="45.278" viewBox="0 0 114.278 114.278">
                    <path id="_5282544_camera_instagram_social_media_social_network_instagram_logo_icon" data-name="5282544_camera_instagram_social media_social network_instagram logo_icon" d="M100.316,0a13.969,13.969,0,0,1,13.962,13.962v86.354a13.969,13.969,0,0,1-13.962,13.962H13.962A13.969,13.969,0,0,1,0,100.316V13.962A13.969,13.969,0,0,1,13.962,0ZM57.139,18.079c-10.608,0-11.938.045-16.1.235a28.665,28.665,0,0,0-9.482,1.816A19.972,19.972,0,0,0,20.13,31.553a28.677,28.677,0,0,0-1.816,9.482c-.19,4.166-.235,5.5-.235,16.1s.045,11.938.235,16.1a28.677,28.677,0,0,0,1.816,9.482A19.974,19.974,0,0,0,31.553,94.149a28.672,28.672,0,0,0,9.482,1.815c4.166.19,5.5.235,16.1.235s11.938-.045,16.1-.235a28.672,28.672,0,0,0,9.482-1.815A19.974,19.974,0,0,0,94.149,82.725a28.672,28.672,0,0,0,1.816-9.482c.19-4.166.235-5.5.235-16.1s-.045-11.938-.235-16.1a28.672,28.672,0,0,0-1.816-9.482A19.973,19.973,0,0,0,82.725,20.13a28.665,28.665,0,0,0-9.482-1.816C69.077,18.124,67.747,18.079,57.139,18.079Zm0,7.038c10.429,0,11.665.04,15.784.228a21.626,21.626,0,0,1,7.253,1.345A12.936,12.936,0,0,1,87.589,34.1a21.614,21.614,0,0,1,1.345,7.253c.188,4.119.228,5.354.228,15.784s-.04,11.665-.228,15.784a21.614,21.614,0,0,1-1.345,7.253,12.936,12.936,0,0,1-7.413,7.413,21.615,21.615,0,0,1-7.253,1.345c-4.118.188-5.353.228-15.784.228s-11.665-.04-15.784-.228A21.615,21.615,0,0,1,34.1,87.589a12.936,12.936,0,0,1-7.413-7.413,21.619,21.619,0,0,1-1.345-7.253c-.188-4.119-.228-5.354-.228-15.784s.04-11.665.228-15.784A21.619,21.619,0,0,1,26.69,34.1,12.936,12.936,0,0,1,34.1,26.69a21.627,21.627,0,0,1,7.253-1.345c4.119-.188,5.354-.228,15.784-.228Zm0,11.964A20.058,20.058,0,1,0,77.2,57.139,20.058,20.058,0,0,0,57.139,37.081Zm0,33.078a13.02,13.02,0,1,1,13.02-13.02A13.02,13.02,0,0,1,57.139,70.159Zm25.538-33.87A4.687,4.687,0,1,1,77.989,31.6a4.687,4.687,0,0,1,4.687,4.687Z" transform="translate(0 0)" fill="#0B3954" fill-rule="evenodd"/>
                  </svg>