<svg xmlns="http://www.w3.org/2000/svg" width="118.768" height="100" viewBox="0 0 118.768 100">
  <defs>
    <style>
      .cls-1 {
        fill: #B7D7EA;
      }
    </style>
  </defs>
  <path id="_8665744_list_check_icon" data-name="8665744_list_check_icon" class="cls-1" d="M27.416,70.95l-12.784,14.2L9.5,80.017A5.567,5.567,0,0,0,1.628,87.89l9.279,9.279a5.415,5.415,0,0,0,3.728,1.64c.051,0,.094,0,.145,0a5.569,5.569,0,0,0,3.994-1.838l16.7-18.557a5.572,5.572,0,0,0-.413-7.866A5.332,5.332,0,0,0,27.416,70.95Zm0-37.105L14.632,48.032,9.5,42.9a5.567,5.567,0,1,0-7.873,7.873l9.279,9.279a5.415,5.415,0,0,0,3.728,1.64c.051,0,.094,0,.145,0a5.569,5.569,0,0,0,3.994-1.838L35.476,41.3a5.572,5.572,0,0,0-.413-7.866A5.324,5.324,0,0,0,27.416,33.845Zm-16.284,75.89a11.134,11.134,0,1,0,11.134,11.134A11.272,11.272,0,0,0,11.132,109.735ZM59.381,54.271h51.961a7.423,7.423,0,1,0,0-14.846H59.381a7.423,7.423,0,1,0,0,14.846ZM111.342,76.54H59.381a7.423,7.423,0,1,0,0,14.846h51.961a7.423,7.423,0,1,0,0-14.846Zm0,37.115H44.535a7.423,7.423,0,1,0,0,14.846h66.806a7.423,7.423,0,1,0,0-14.846Z" transform="translate(0.003 -32.004)"/>
</svg>
